<?xml version="1.0" standalone="no"?>
<!DOCTYPE svg PUBLIC "-//W3C//DTD SVG 20010904//EN"
 "http://www.w3.org/TR/2001/REC-SVG-20010904/DTD/svg10.dtd">
<svg version="1.0" xmlns="http://www.w3.org/2000/svg"
 width="181.000000pt" height="171.000000pt" viewBox="0 0 181.000000 171.000000"
 preserveAspectRatio="xMidYMid meet">
<metadata>
Created by potrace 1.16, written by Peter Selinger 2001-2019
</metadata>
<g transform="translate(0.000000,171.000000) scale(0.100000,-0.100000)"
fill="#000000" stroke="none">
<path d="M557 1466 c-57 -21 -93 -54 -127 -118 -19 -36 -20 -58 -20 -507 l0
-469 31 -26 c57 -48 80 -40 243 89 l144 115 291 0 c168 0 311 4 340 11 71 15
127 59 157 122 23 51 24 56 24 337 0 255 -2 289 -19 326 -23 49 -88 107 -140
122 -59 18 -873 16 -924 -2z m938 -117 c52 -46 57 -78 53 -358 -3 -273 -5
-281 -71 -321 -30 -19 -53 -20 -357 -20 l-325 0 -145 -116 -145 -116 -3 427
c-2 473 -2 477 62 516 29 18 58 19 463 19 l432 0 36 -31z"/>
<path d="M766 1148 c-20 -29 -20 -34 4 -58 19 -19 33 -20 244 -20 124 0 236 4
250 10 20 7 26 17 26 38 0 51 -5 52 -266 52 -240 0 -243 0 -258 -22z"/>
<path d="M764 915 c-15 -23 -15 -27 0 -50 16 -25 17 -25 172 -25 88 0 164 4
175 10 12 7 19 21 19 40 0 19 -7 33 -19 40 -11 6 -87 10 -175 10 -155 0 -156
0 -172 -25z"/>
</g>
</svg>
