<?xml version="1.0" standalone="no"?>
<!DOCTYPE svg PUBLIC "-//W3C//DTD SVG 20010904//EN"
 "http://www.w3.org/TR/2001/REC-SVG-20010904/DTD/svg10.dtd">
<svg version="1.0" xmlns="http://www.w3.org/2000/svg"
 width="127.000000pt" height="115.000000pt" viewBox="0 0 127.000000 115.000000"
 preserveAspectRatio="xMidYMid meet">
<metadata>
Created by potrace 1.16, written by Peter Selinger 2001-2019
</metadata>
<g transform="translate(0.000000,115.000000) scale(0.100000,-0.100000)"
fill="#000000" stroke="none">
<path d="M501 1014 c-172 -46 -324 -207 -360 -382 -75 -362 241 -684 599 -608
109 23 175 59 256 140 163 162 198 375 99 585 -61 128 -198 239 -335 270 -64
15 -195 12 -259 -5z m-83 -341 l3 -82 32 19 c37 23 74 25 112 8 45 -20 55 -54
55 -193 l0 -125 -45 0 -45 0 0 118 c0 78 -4 122 -12 130 -16 16 -50 15 -74 -2
-16 -13 -19 -29 -22 -130 l-4 -116 -44 0 -44 0 0 223 c0 123 3 227 7 231 4 4
23 6 43 4 l35 -3 3 -82z m322 2 c0 -47 3 -85 7 -85 3 0 15 8 26 18 13 11 36
17 69 17 88 0 112 -52 106 -230 l-3 -90 -42 -3 -43 -3 0 111 c0 126 -8 150
-49 150 -50 0 -63 -27 -69 -150 l-5 -110 -38 0 -39 0 0 230 0 230 40 0 40 0 0
-85z"/>
</g>
</svg>
