<?xml version="1.0" standalone="no"?>
<!DOCTYPE svg PUBLIC "-//W3C//DTD SVG 20010904//EN"
 "http://www.w3.org/TR/2001/REC-SVG-20010904/DTD/svg10.dtd">
<svg version="1.0" xmlns="http://www.w3.org/2000/svg"
 width="147.000000pt" height="158.000000pt" viewBox="0 0 147.000000 158.000000"
 preserveAspectRatio="xMidYMid meet">
<metadata>
Created by potrace 1.16, written by Peter Selinger 2001-2019
</metadata>
<g transform="translate(0.000000,158.000000) scale(0.100000,-0.100000)"
fill="#000000" stroke="none">
<path d="M526 1319 c-54 -13 -100 -50 -125 -102 -20 -42 -21 -58 -21 -403 0
-328 2 -362 19 -399 22 -48 54 -79 103 -100 31 -12 87 -15 320 -15 176 0 298
4 323 11 50 14 107 72 123 126 16 53 17 690 1 747 -15 53 -43 89 -92 117 -41
24 -47 24 -327 26 -157 1 -303 -3 -324 -8z m599 -83 c19 -8 44 -30 55 -48 19
-31 20 -50 20 -371 0 -372 -2 -386 -59 -420 -26 -15 -63 -17 -311 -17 -232 0
-286 3 -310 15 -59 30 -60 40 -60 420 0 384 1 388 64 419 44 22 550 23 601 2z"/>
<path d="M622 1069 c-18 -7 -23 -15 -20 -36 l3 -28 120 0 c120 0 120 0 123 24
6 40 -21 51 -117 50 -47 0 -96 -4 -109 -10z"/>
<path d="M612 838 c-16 -16 -15 -43 2 -57 9 -8 76 -11 221 -9 185 3 209 5 219
21 8 12 8 22 0 35 -10 15 -34 17 -220 20 -155 2 -213 -1 -222 -10z"/>
<path d="M607 613 c-15 -14 -6 -53 13 -63 29 -16 415 -9 431 7 7 7 9 22 5 37
l-6 26 -219 0 c-120 0 -221 -3 -224 -7z"/>
<path d="M222 968 c-9 -9 -12 -98 -12 -340 0 -358 2 -372 58 -432 59 -63 76
-66 409 -66 292 0 303 1 313 20 8 14 8 26 0 40 -10 19 -21 20 -306 20 -326 0
-337 2 -374 63 -19 30 -20 52 -20 358 0 335 -2 349 -40 349 -9 0 -21 -5 -28
-12z"/>
</g>
</svg>
