<?xml version="1.0" standalone="no"?>
<!DOCTYPE svg PUBLIC "-//W3C//DTD SVG 20010904//EN"
 "http://www.w3.org/TR/2001/REC-SVG-20010904/DTD/svg10.dtd">
<svg version="1.0" xmlns="http://www.w3.org/2000/svg"
 width="158.000000pt" height="144.000000pt" viewBox="0 0 158.000000 144.000000"
 preserveAspectRatio="xMidYMid meet">
<metadata>
Created by potrace 1.16, written by Peter Selinger 2001-2019
</metadata>
<g transform="translate(0.000000,144.000000) scale(0.100000,-0.100000)"
fill="#000000" stroke="none">
<path d="M537 1286 c-48 -18 -83 -50 -108 -98 -18 -35 -19 -63 -19 -398 0
-387 2 -404 53 -458 51 -55 60 -57 368 -60 316 -4 348 0 405 50 71 62 69 51
69 464 l0 371 -30 48 c-54 88 -64 90 -405 92 -232 2 -303 0 -333 -11z m622
-79 c13 -6 34 -25 45 -40 20 -26 21 -43 24 -243 2 -118 -1 -214 -5 -213 -4 0
-25 22 -45 48 -43 57 -106 87 -161 77 -70 -13 -96 -43 -232 -266 -143 -233
-143 -233 -218 -210 -25 7 -45 22 -57 43 -19 30 -20 53 -20 385 0 231 4 360
11 373 5 11 25 29 42 39 30 19 52 20 312 20 202 0 287 -4 304 -13z m-86 -456
c14 -6 52 -50 91 -108 55 -82 66 -105 65 -138 0 -62 -20 -107 -58 -132 -32
-22 -43 -23 -227 -23 -107 0 -194 3 -194 6 0 3 52 90 115 193 127 207 146 225
208 202z"/>
<path d="M686 1120 c-90 -27 -136 -153 -83 -230 38 -57 72 -75 136 -75 43 1
65 6 89 24 97 69 85 219 -22 270 -45 22 -73 25 -120 11z m105 -99 c16 -16 29
-39 29 -51 0 -30 -53 -80 -85 -80 -33 0 -75 42 -75 75 0 78 76 110 131 56z"/>
<path d="M247 943 c-4 -3 -7 -157 -7 -342 0 -305 2 -340 19 -377 23 -51 81
-99 137 -113 26 -7 154 -11 322 -11 301 0 307 1 300 52 l-3 23 -305 5 c-331 5
-336 6 -370 63 -19 30 -20 53 -20 358 0 239 -3 328 -12 337 -13 13 -50 16 -61
5z"/>
</g>
</svg>
