<?xml version="1.0" standalone="no"?>
<!DOCTYPE svg PUBLIC "-//W3C//DTD SVG 20010904//EN"
 "http://www.w3.org/TR/2001/REC-SVG-20010904/DTD/svg10.dtd">
<svg version="1.0" xmlns="http://www.w3.org/2000/svg"
 width="125.000000pt" height="118.000000pt" viewBox="0 0 125.000000 118.000000"
 preserveAspectRatio="xMidYMid meet">
<metadata>
Created by potrace 1.16, written by Peter Selinger 2001-2019
</metadata>
<g transform="translate(0.000000,118.000000) scale(0.100000,-0.100000)"
fill="#000000" stroke="none">
<path d="M540 1059 c-25 -5 -76 -24 -115 -43 -291 -144 -355 -528 -126 -757
187 -187 487 -187 671 0 64 65 103 133 125 216 87 335 -213 650 -555 584z
m235 -277 c21 -13 38 -16 58 -11 29 8 35 1 15 -19 -9 -9 -7 -12 12 -12 l24 0
-27 -28 c-19 -20 -27 -39 -27 -63 0 -50 -54 -152 -98 -187 -72 -57 -101 -67
-192 -67 -73 0 -160 18 -147 31 2 3 31 11 63 20 74 19 83 28 44 44 -30 13 -57
46 -46 58 4 3 -3 15 -13 26 -23 25 -38 76 -22 76 7 0 7 7 0 24 -7 14 -9 40 -5
60 l7 36 38 -30 c33 -27 126 -70 150 -70 5 0 12 12 16 28 10 42 34 72 68 87
42 18 47 18 82 -3z"/>
</g>
</svg>
