<?xml version="1.0" standalone="no"?>
<!DOCTYPE svg PUBLIC "-//W3C//DTD SVG 20010904//EN"
 "http://www.w3.org/TR/2001/REC-SVG-20010904/DTD/svg10.dtd">
<svg version="1.0" xmlns="http://www.w3.org/2000/svg"
 width="180.000000pt" height="171.000000pt" viewBox="0 0 180.000000 171.000000"
 preserveAspectRatio="xMidYMid meet">
<metadata>
Created by potrace 1.16, written by Peter Selinger 2001-2019
</metadata>
<g transform="translate(0.000000,171.000000) scale(0.100000,-0.100000)"
fill="#000000" stroke="none">
<path d="M765 1585 c-430 -95 -691 -525 -573 -949 69 -251 259 -446 513 -526
143 -45 346 -37 496 19 317 119 523 464 480 802 -23 178 -95 325 -221 449
-112 109 -231 174 -378 205 -83 18 -237 18 -317 0z m523 -447 c7 -7 12 -25 12
-40 0 -34 -116 -593 -130 -625 -16 -38 -50 -27 -152 47 -53 39 -100 70 -105
70 -5 0 -31 -22 -58 -50 -27 -27 -55 -50 -61 -50 -9 0 -11 21 -8 78 3 42 7 87
10 99 2 12 74 85 161 164 207 186 198 178 191 184 -3 3 -106 -58 -229 -136
l-224 -142 -63 17 c-113 30 -157 50 -157 71 0 17 62 44 390 171 215 84 395
152 401 153 5 1 15 -4 22 -11z"/>
</g>
</svg>
